<?xml version="1.0" encoding="UTF-8" standalone="no"?>
<!-- Created with Inkscape (http://www.inkscape.org/) -->

<svg
   xmlns:dc="http://purl.org/dc/elements/1.1/"
   xmlns:cc="http://creativecommons.org/ns#"
   xmlns:rdf="http://www.w3.org/1999/02/22-rdf-syntax-ns#"
   xmlns:svg="http://www.w3.org/2000/svg"
   xmlns="http://www.w3.org/2000/svg"
   xmlns:sodipodi="http://sodipodi.sourceforge.net/DTD/sodipodi-0.dtd"
   xmlns:inkscape="http://www.inkscape.org/namespaces/inkscape"
   width="267.82483"
   height="148.59164"
   id="svg2"
   version="1.1"
   inkscape:version="0.48.5 r10040"
   sodipodi:docname="grapefruit.svg">
  <defs
     id="defs4" />
  <sodipodi:namedview
     id="base"
     pagecolor="#ffffff"
     bordercolor="#666666"
     borderopacity="1.0"
     inkscape:pageopacity="0.0"
     inkscape:pageshadow="2"
     inkscape:zoom="1.979899"
     inkscape:cx="121.60126"
     inkscape:cy="117.9816"
     inkscape:document-units="px"
     inkscape:current-layer="layer1"
     showgrid="false"
     inkscape:window-width="1920"
     inkscape:window-height="1023"
     inkscape:window-x="0"
     inkscape:window-y="0"
     inkscape:window-maximized="1"
     fit-margin-top="0"
     fit-margin-left="0"
     fit-margin-right="0"
     fit-margin-bottom="0" />
  <metadata
     id="metadata7">
    <rdf:RDF>
      <cc:Work
         rdf:about="">
        <dc:format>image/svg+xml</dc:format>
        <dc:type
           rdf:resource="http://purl.org/dc/dcmitype/StillImage" />
        <dc:title></dc:title>
      </cc:Work>
    </rdf:RDF>
  </metadata>
  <g
     inkscape:label="Layer 1"
     inkscape:groupmode="layer"
     id="layer1"
     transform="translate(-226.05044,-67.434935)">
    <path
       style="fill:#000000"
       d="m 458.625,191.34375 c -0.27779,-0.0656 -0.58326,-0.005 -0.84375,0.15625 -0.52097,0.32197 -0.69698,1.01028 -0.375,1.53125 0.32197,0.52097 1.01028,0.66573 1.53125,0.34375 0.52097,-0.32197 0.69698,-1.01028 0.375,-1.53125 -0.16098,-0.26048 -0.40971,-0.43442 -0.6875,-0.5 z"
       id="path3107"
       inkscape:connector-curvature="0" />
    <path
       style="fill:#000000"
       d="m 470.65625,184.375 c -1.63257,0.24125 -3.8125,1.53169 -3.8125,2.59375 0,1.27977 1.02457,1.1598 3.90625,-0.4375 1.50568,-0.83459 1.95352,-1.5652 1.25,-2 -0.32447,-0.20053 -0.79956,-0.23667 -1.34375,-0.15625 z"
       id="path3105"
       inkscape:connector-curvature="0" />
    <path
       style="fill:#000000"
       d="m 281.59375,184.28125 c -0.6875,0.27741 -0.125,0.5 1.25,0.5 1.375,0 1.9375,-0.22259 1.25,-0.5 -0.6875,-0.27741 -1.8125,-0.27741 -2.5,0 z"
       id="path3103"
       inkscape:connector-curvature="0" />
    <path
       style="fill:#000000"
       d="m 434.34375,183.9375 c 0.825,0 1.5,0.61415 1.5,1.375 0,0.76085 0.94592,1.63734 2.09375,1.9375 1.31003,0.34258 1.96153,1.19028 1.75,2.28125 -0.69254,3.57191 -4.84375,2.0166 -4.84375,-1.8125 0,-0.99 -0.45,-1.78125 -1,-1.78125 -0.55,0 -1,-0.45 -1,-1 0,-0.55 0.675,-1 1.5,-1 z m 7.9375,1.34375 c 0.26846,-0.15557 0.64832,-0.16366 1.15625,0.0312 0.86998,0.33385 1.76998,0.625 2,0.625 0.23001,0 0.40625,0.675 0.40625,1.5 0,0.825 -0.3375,1.44965 -0.75,1.40625 -1.97983,-0.2084 -3.25,-1.21136 -3.25,-2.59375 0,-0.48928 0.16904,-0.81318 0.4375,-0.96875 z"
       id="path3101"
       inkscape:connector-curvature="0" />
    <path
       style="fill:#000000"
       d="m 287.59375,183.28125 c -0.6875,0.27741 -0.125,0.5 1.25,0.5 1.375,0 1.9375,-0.22259 1.25,-0.5 -0.6875,-0.27741 -1.8125,-0.27741 -2.5,0 z"
       id="path3099"
       inkscape:connector-curvature="0" />
    <path
       style="fill:#000000"
       d="m 478.5625,182.375 c -0.34307,0.0106 -0.77112,0.20163 -1.28125,0.625 -0.77603,0.64405 -1.4375,1.80485 -1.4375,2.5625 0,1.77813 0.4978,1.72095 2.4375,-0.21875 1.45116,-1.45115 1.31047,-3.00071 0.28125,-2.96875 z"
       id="path3097"
       inkscape:connector-curvature="0" />
    <path
       style="fill:#000000"
       d="m 317.84375,178.9375 c -0.0516,-0.0516 -0.45697,0.25306 -1.25,0.875 -0.9625,0.75485 -1.75,1.54235 -1.75,1.75 0,0.82304 0.84988,0.29075 2.15625,-1.375 0.62194,-0.79303 0.89537,-1.19838 0.84375,-1.25 z"
       id="path3095"
       inkscape:connector-curvature="0" />
    <path
       style="fill:#000000"
       d="m 333,176.1875 c 0.62306,0.14701 1.35801,0.47135 2.3125,0.90625 3.06401,1.39605 3.22644,2.48833 0.53125,3.34375 -1.1,0.34913 -2,1.41577 -2,2.375 0,0.95922 -0.90982,2.73379 -2.03125,3.9375 -2.46791,2.64899 -3.18231,2.69102 -5.25,0.40625 -1.47723,-1.63232 -1.37771,-2.12759 1.34375,-6.5 2.39241,-3.84373 3.22458,-4.90978 5.09375,-4.46875 z"
       id="path3093"
       inkscape:connector-curvature="0" />
    <path
       style="fill:#000000"
       d="m 416.59375,168.03125 c 1.06471,-0.0124 1.50275,0.72689 0.8125,1.84375 -0.83038,1.34361 -2.25192,1.37404 -3.0625,0.0625 -0.34231,-0.55389 0.11642,-1.28594 1,-1.625 0.47866,-0.18368 0.8951,-0.2771 1.25,-0.28125 z"
       id="path3091"
       inkscape:connector-curvature="0" />
    <path
       style="fill:#000000"
       d="m 329.5,164.9375 c -0.55925,0 -0.15091,0.63324 0.90625,1.40625 1.79788,1.31464 1.74197,1.36331 -0.8125,0.875 -3.08716,-0.59015 -3.71713,1.04242 -1,2.625 2.48003,1.44449 3.25,1.32709 3.25,-0.53125 0,-1.38983 0.25091,-1.43099 1.75,-0.28125 0.9625,0.73821 0.67712,0.12086 -0.65625,-1.375 -1.33338,-1.49586 -2.87826,-2.71875 -3.4375,-2.71875 z m 6.875,5.46875 c -0.1678,0.0701 -0.17517,0.24782 0,0.53125 0.33602,0.5437 1.01371,1 1.53125,1 1.43843,0 1.13867,-0.71021 -0.59375,-1.375 -0.44494,-0.17075 -0.7697,-0.22633 -0.9375,-0.15625 z"
       id="path3089"
       inkscape:connector-curvature="0" />
    <path
       style="fill:#000000"
       d="m 431.8125,159.625 c 1.868,-0.15921 3.58586,0.34622 3.84375,1.59375 0.25702,1.24333 -0.5624,2.09204 -2.71875,2.84375 -1.69296,0.59017 -3.09375,1.62654 -3.09375,2.3125 0,0.68595 -0.9,2.06701 -2,3.0625 -1.1,0.99549 -2,2.61145 -2,3.59375 0,0.9823 -0.44612,2.06393 -1,2.40625 -1.19813,0.74048 -2.44617,-1.97644 -1.5625,-3.40625 0.33903,-0.54856 -0.72117,-1.99602 -2.375,-3.21875 -3.51396,-2.59799 -2.61601,-4.875 1.9375,-4.875 1.62259,0 3.34838,-0.82998 4.15625,-2 0.93137,-1.34889 2.9445,-2.15329 4.8125,-2.3125 z m 13.53125,5.90625 c 0.28422,0.10798 0.37403,0.34619 0.25,0.71875 -0.47887,1.43833 -3.75,2.20259 -3.75,0.875 0,-0.52619 0.9311,-1.20413 2.0625,-1.5 0.65429,-0.1711 1.15328,-0.20173 1.4375,-0.0937 z m -5.28125,7.59375 c 2.89513,0.41257 3.38903,2.82226 1.09375,5.46875 -0.98276,1.13313 -3.27552,2.38876 -5.0625,2.78125 -2.94247,0.64627 -3.23435,0.48464 -3.21875,-1.625 0.0231,-3.11174 4.29345,-7.03742 7.1875,-6.625 z"
       id="path3087"
       inkscape:connector-curvature="0" />
    <path
       style="fill:#000000"
       d="m 339.28125,157 c -0.86376,0.22354 -1.89254,0.91922 -2.4375,1.9375 -0.5887,1.1 -0.79926,2 -0.46875,2 1.33023,0 4.46875,-2.1279 4.46875,-3.03125 0,-0.87724 -0.69874,-1.12979 -1.5625,-0.90625 z"
       id="path3085"
       inkscape:connector-curvature="0" />
    <path
       style="fill:#000000"
       d="m 424.90625,156.9375 c 0.58246,0 0.77742,0.45 0.4375,1 -0.33992,0.55 -0.78871,1 -1.03125,1 -0.24254,0 -0.46875,-0.45 -0.46875,-1 0,-0.55 0.48004,-1 1.0625,-1 z"
       id="path3083"
       inkscape:connector-curvature="0" />
    <path
       style="fill:#000000"
       d="m 344.34375,147.9375 c -2,0 -2.5,0.5 -2.5,2.5 0,2.9287 0.68743,3.10628 3.1875,0.84375 2.50799,-2.2697 2.27596,-3.34375 -0.6875,-3.34375 z"
       id="path3081"
       inkscape:connector-curvature="0" />
    <path
       style="fill:#000000"
       d="m 425.53125,147 c 1.5034,-0.0713 3.04357,0.30201 4.78125,1.09375 3.03997,1.3851 3.14441,1.99527 0.6875,4.21875 -1.42335,1.28811 -2.84558,1.53566 -6,1.03125 -3.42344,-0.54743 -4.15625,-0.37912 -4.15625,0.96875 0,2.7901 -1.74012,1.76692 -2.1875,-1.28125 -0.34153,-2.32699 0.0989,-3.21083 2.28125,-4.5 1.60889,-0.95039 3.09035,-1.45998 4.59375,-1.53125 z m 19.875,6.28125 c 0.57918,-0.11067 1.0204,-0.1046 1.21875,0.0937 0.2771,0.27709 -0.0543,1.19296 -0.75,2.03125 -1.4233,1.71497 -5.03125,2.07337 -5.03125,0.5 0,-0.85517 2.82497,-2.29298 4.5625,-2.625 z"
       id="path3079"
       inkscape:connector-curvature="0" />
    <path
       style="fill:#000000"
       d="m 267.84375,145.21875 c -1.04974,0.21946 -2.04721,1.83052 -1.34375,2.96875 0.28768,0.46547 1.20065,0.2884 2,-0.375 1.044,-0.86644 1.12245,-1.50255 0.34375,-2.28125 -0.30254,-0.30253 -0.65009,-0.38565 -1,-0.3125 z"
       id="path3077"
       inkscape:connector-curvature="0" />
    <path
       style="fill:#000000"
       d="m 413.84375,144.9375 c 0.55,0 1,0.45 1,1 0,0.55 -0.45,1 -1,1 -0.55,0 -1,-0.45 -1,-1 0,-0.55 0.45,-1 1,-1 z"
       id="path3075"
       inkscape:connector-curvature="0" />
    <path
       style="fill:#000000"
       d="m 354.96875,141.0625 c -0.71639,0.23127 -1.89818,1.03686 -3.375,2.40625 -3.29017,3.05081 -3.72599,5.91329 -0.75,4.96875 1.23506,-0.39199 2,-0.17226 2,0.5625 0,0.88203 0.34895,0.88811 1.34375,0.0625 0.7381,-0.61257 1.62383,-0.84493 1.96875,-0.5 0.34493,0.34492 0.26088,-0.6628 -0.1875,-2.25 -0.44841,-1.58719 -0.61117,-3.4375 -0.375,-4.125 0.3449,-1.00398 0.0914,-1.35627 -0.625,-1.125 z m 5.4375,7.9375 c -0.84609,-0.12047 -1.5625,0.31233 -1.5625,1.375 0,0.78675 1.0125,1.60539 2.25,1.84375 1.2375,0.23835 2.40565,0.51885 2.5625,0.59375 0.15685,0.0749 -0.2238,-0.775 -0.8125,-1.875 -0.61563,-1.15033 -1.59141,-1.81703 -2.4375,-1.9375 z"
       id="path3073"
       inkscape:connector-curvature="0" />
    <path
       style="fill:#000000"
       d="m 361.25,140.15625 c -2.22521,-0.18416 -2.46214,0.009 -1.40625,1.28125 0.68417,0.82437 1.86735,1.5 2.625,1.5 0.75766,0 1.4362,0.5625 1.5,1.25 0.0638,0.6875 0.34093,0.43798 0.59375,-0.53125 0.25283,-0.96924 0.9379,-1.46047 1.53125,-1.09375 0.64676,0.39972 0.77756,0.20191 0.34375,-0.5 -0.39798,-0.64399 -1.14425,-0.91019 -1.65625,-0.59375 -0.51199,0.31643 -0.9375,0.2125 -0.9375,-0.25 0,-0.4625 -1.15193,-0.94317 -2.59375,-1.0625 z"
       id="path3071"
       inkscape:connector-curvature="0" />
    <path
       style="fill:#000000"
       d="m 442.46875,139.9375 c -0.825,0 -1.78508,0.45 -2.125,1 -0.33992,0.55 0.0813,1 0.90625,1 0.825,0 1.75383,-0.45 2.09375,-1 0.33992,-0.55 -0.05,-1 -0.875,-1 z"
       id="path3069"
       inkscape:connector-curvature="0" />
    <path
       style="fill:#000000"
       d="m 236.71875,139.40625 c -1.2838,-0.15152 -0.78972,0.61349 1.3125,3.03125 2.68409,3.08698 4.07863,3.19754 3.65625,0.3125 -0.20512,-1.40108 -1.3285,-2.43712 -3.09375,-2.90625 -0.82958,-0.22047 -1.44707,-0.38699 -1.875,-0.4375 z m 13.9375,4.875 c -0.31345,-0.0562 -0.7099,0.15614 -1.3125,0.65625 -1.96547,1.63119 -1.90015,4.88396 0.15625,7.15625 0.91024,1.00581 2.03524,1.84375 2.5,1.84375 1.15808,0 1.08773,-2.73855 -0.0937,-3.46875 -0.52598,-0.32507 -0.71608,-1.25511 -0.40625,-2.0625 0.30983,-0.80738 0.27785,-2.20681 -0.0625,-3.09375 -0.25058,-0.65299 -0.4678,-0.97508 -0.78125,-1.03125 z"
       id="path3067"
       inkscape:connector-curvature="0" />
    <path
       style="fill:#000000"
       d="m 424.28125,138.46875 c 0.35543,-0.10014 0.68017,-0.10108 0.90625,0.125 0.36189,0.3619 0.65625,1.26666 0.65625,2 0,1.4897 -2.55414,1.84749 -3.40625,0.46875 -0.51041,-0.82586 0.77746,-2.29332 1.84375,-2.59375 z"
       id="path3065"
       inkscape:connector-curvature="0" />
    <path
       style="fill:#000000"
       d="m 404.53125,135.15625 c -0.1757,0.0906 -0.42092,0.36875 -0.6875,0.78125 -0.53316,0.825 -0.96875,1.95 -0.96875,2.5 0,0.55 0.43559,0.325 0.96875,-0.5 0.53316,-0.825 0.96875,-1.95 0.96875,-2.5 0,-0.275 -0.10555,-0.37187 -0.28125,-0.28125 z"
       id="path3063"
       inkscape:connector-curvature="0" />
    <path
       style="fill:#000000"
       d="m 444.65625,135.03125 c -0.63231,-0.11655 -0.53062,0.659 0.59375,2.375 0.88826,1.35565 1.59375,3.15565 1.59375,4 0,1.75179 0.87012,1.90923 3,0.5625 1.23792,-0.78275 1.00049,-1.45529 -1.4375,-4 -1.75548,-1.83232 -3.11769,-2.82095 -3.75,-2.9375 z m 8.6875,7.59375 -2.75,1.78125 c -2.99302,1.92621 -3.44436,3.09043 -1.5,3.875 1.87998,0.75859 1.92717,0.74 1.21875,-0.40625 -0.36134,-0.58466 0.17112,-2.00577 1.1875,-3.15625 l 1.84375,-2.09375 z"
       id="path3061"
       inkscape:connector-curvature="0" />
    <path
       style="fill:#000000"
       d="m 373.0625,129.15625 c -0.31535,0.0608 -0.65291,0.21197 -1,0.4375 -0.9425,0.61239 -1.59977,2.05907 -1.46875,3.21875 0.13102,1.15967 -0.25461,2.125 -0.875,2.125 -0.62038,0 -1.67943,0.74774 -2.34375,1.65625 -0.95442,1.30524 -0.93021,2.22825 0.1875,4.46875 1.95528,3.91945 0.84588,5.21865 -3.84375,4.46875 -4.65076,-0.74369 -4.90924,-0.17994 -0.875,1.90625 3.22034,1.6653 3.93148,4.49736 1.59375,6.4375 -1.85929,1.54307 -7.85083,0.41463 -11,-2.0625 -1.31947,-1.0379 -2.65584,-1.875 -2.96875,-1.875 -0.31291,0 -1.41476,1.78725 -2.46875,3.96875 -1.62329,3.35984 -1.71123,4.1457 -0.53125,5.125 3.14063,2.60649 0.54332,7.08524 -4.875,8.4375 -1.5125,0.37747 -2.75,1.0826 -2.75,1.5625 0,1.10764 4.28238,2.20776 6.6875,1.71875 1.16848,-0.23757 2.45394,0.62817 3.5625,2.40625 0.95442,1.53083 2.35926,2.78125 3.125,2.78125 0.76574,0 2.0264,0.73966 2.78125,1.65625 0.75484,0.9166 4.49375,3.13995 8.34375,4.9375 7.60385,3.55021 14.5,4.4608 14.5,1.90625 0,-1.87888 0.37992,-1.89032 4.15625,0.0625 1.68193,0.86975 4.04428,1.33387 5.25,1.03125 2.66389,-0.6686 5.59375,-6.41737 5.59375,-11 0,-1.839 0.675,-3.90906 1.5,-4.59375 0.825,-0.68469 1.5,-2.08173 1.5,-3.09375 0,-3.869 -4.11358,-12.65429 -7.46875,-15.90625 -1.92634,-1.86708 -3.53125,-4.25074 -3.53125,-5.28125 0,-1.03051 -1.35,-3.82056 -3,-6.21875 -3.43642,-4.99466 -3.96856,-7.21907 -0.84375,-3.5 l 2.09375,2.5 -1.5,-2.5 c -0.8221,-1.375 -1.79068,-2.3474 -2.1875,-2.15625 -0.39682,0.19115 -2.0689,-0.91803 -3.6875,-2.46875 -1.78826,-1.71326 -2.71019,-2.33868 -3.65625,-2.15625 z M 388,139.46875 c -0.22233,0.22233 0.33782,1.54534 1.25,2.9375 2.2856,3.48826 2.90742,3.18948 0.84375,-0.40625 -0.9266,-1.6145 -1.87142,-2.75358 -2.09375,-2.53125 z m -0.875,3.84375 c -0.10514,0.10514 -0.1635,0.44878 -0.1875,1.03125 -0.0434,1.05416 0.19895,1.64479 0.53125,1.3125 0.33225,-0.3323 0.35137,-1.18438 0.0625,-1.90625 -0.15961,-0.39887 -0.30111,-0.54264 -0.40625,-0.4375 z m 1.09375,4 c 0.0344,0.13093 0.54577,0.72468 1.5625,1.875 2.73208,3.09105 4.0625,3.48498 4.0625,1.1875 0,-0.85744 -0.47785,-1.26758 -1.0625,-0.90625 -0.58466,0.36134 -2.04716,-0.17506 -3.25,-1.1875 -0.9172,-0.77201 -1.34695,-1.09968 -1.3125,-0.96875 z m -29.53125,19.625 c 2.23588,0 3.61369,0.90264 5.75,3.75 1.54746,2.0625 3.39561,4.1162 4.125,4.5625 0.72943,0.4463 1.06902,1.2338 0.75,1.75 -0.81565,1.31974 -1.59781,1.14673 -4.46875,-1 -1.3821,-1.03346 -3.8571,-2.03213 -5.5,-2.21875 -2.55385,-0.29009 -3.04459,-0.81512 -3.3125,-3.59375 -0.28943,-3.00182 -0.0636,-3.25 2.65625,-3.25 z"
       id="path3059"
       inkscape:connector-curvature="0" />
    <path
       style="fill:#000000"
       d="m 378.1875,124.125 c 0.20614,0.0261 0.48497,0.23497 0.84375,0.59375 0.65087,0.65084 0.97167,1.40334 0.6875,1.6875 -0.66739,0.66739 -1.875,-0.50897 -1.875,-1.84375 0,-0.3133 0.13761,-0.46363 0.34375,-0.4375 z"
       id="path3057"
       inkscape:connector-curvature="0" />
    <path
       style="fill:#000000"
       d="m 315.75,124 c -1.11515,0.23088 -2.36686,0.92964 -2.90625,1.9375 -0.76905,1.43706 -0.7598,2 0.0312,2 1.73881,0 4.96875,-1.96924 4.96875,-3.03125 0,-0.89618 -0.9786,-1.13713 -2.09375,-0.90625 z"
       id="path3055"
       inkscape:connector-curvature="0" />
    <path
       style="fill:#000000"
       d="m 236.15625,122.3125 c -0.18125,0.0799 -0.3125,0.27127 -0.3125,0.5625 0,0.58246 0.45,1.0625 1,1.0625 0.55,0 1,-0.19496 1,-0.4375 0,-0.24254 -0.45,-0.72258 -1,-1.0625 -0.275,-0.16996 -0.50625,-0.20493 -0.6875,-0.125 z m 4.1875,0.75 c -0.58602,-0.004 -1.05334,0.11584 -1.28125,0.34375 -0.38602,0.38603 0.14116,1.28899 1.15625,2.03125 1.86708,1.36524 4.625,1.01275 4.625,-0.59375 0,-0.85487 -2.74195,-1.76867 -4.5,-1.78125 z"
       id="path3053"
       inkscape:connector-curvature="0" />
    <path
       style="fill:#000000"
       d="m 297.90625,119.9375 c -1.35037,0 -2.26879,1.80663 -1.53125,3 0.34546,0.55897 1.0505,0.78519 1.5625,0.46875 1.21459,-0.75067 1.18555,-3.46875 -0.0312,-3.46875 z"
       id="path3051"
       inkscape:connector-curvature="0" />
    <path
       style="fill:#000000"
       d="m 242.3125,114.9375 c -1.80786,0 -2.90805,2.37798 -2.09375,4.5 0.75084,1.95665 2.2647,1.90385 3.03125,-0.0937 1.03432,-2.69538 0.66076,-4.40625 -0.9375,-4.40625 z"
       id="path3049"
       inkscape:connector-curvature="0" />
    <path
       style="fill:#000000"
       d="m 246.4375,111.4375 c -0.32823,-0.0492 -0.70308,0.006 -1.09375,0.15625 -0.80423,0.30861 -1.21055,0.94514 -0.90625,1.4375 0.6482,1.04882 1.81474,1.15401 2.71875,0.25 0.79861,-0.79861 0.26594,-1.69613 -0.71875,-1.84375 z"
       id="path3047"
       inkscape:connector-curvature="0" />
    <path
       style="fill:#000000"
       d="m 415.9375,111.125 c 0.59125,0.19708 1.0625,0.79 1.0625,1.3125 0,0.5225 -0.47125,1.11542 -1.0625,1.3125 -0.59125,0.19709 -1.09375,-0.39583 -1.09375,-1.3125 0,-0.91667 0.5025,-1.50959 1.09375,-1.3125 z"
       id="path3045"
       inkscape:connector-curvature="0" />
    <path
       style="fill:#000000"
       d="m 251.25,109.09375 c -0.42959,0.0935 0.38947,0.79592 1.90625,2.21875 1.54084,1.4454 3.45334,2.625 4.25,2.625 2.18497,0 1.72682,-2.78804 -0.5625,-3.4375 -3.49692,-0.99206 -5.16416,-1.49971 -5.59375,-1.40625 z"
       id="path3043"
       inkscape:connector-curvature="0" />
    <path
       style="fill:#000000"
       d="m 292.46875,93.125 c -1.21347,-0.234291 -2.68869,0.45647 -4.8125,1.96875 -2.41499,1.71963 -4.33765,2.0989 -9.65625,2 -3.65176,-0.06792 -7.55625,0.2787 -8.65625,0.75 -1.1,0.4713 -3.125,1.32756 -4.5,1.90625 l -2.5,1.0625 2.5,0.0625 c 4.50561,0.14659 6.48147,1.12448 7.75,3.8125 2.84466,6.02778 1.19656,7.02248 -6.15625,3.65625 -5.61391,-2.57013 -9.02004,-2.64825 -8.03125,-0.1875 0.28462,0.70832 1.92274,1.98655 3.65625,2.84375 4.34223,2.14718 4.86658,4.11082 0.875,3.3125 -3.21604,-0.64321 -3.24035,-0.62388 -3.46875,4.59375 -0.0729,1.66518 -1.02044,2.9335 -2.90625,3.84375 -2.21968,1.0714 -2.59057,1.63061 -1.6875,2.71875 0.62769,0.75634 0.89382,1.80766 0.5625,2.34375 -0.33132,0.53608 -0.18142,1.23793 0.34375,1.5625 0.52517,0.32458 1.3037,0.0428 1.75,-0.65625 0.4463,-0.69907 2.56947,-1.33585 4.71875,-1.40625 3.22848,-0.10579 3.57615,0.0445 2,0.90625 -2.17844,1.19102 -8.40325,7.50876 -8.40625,8.53125 -0.001,0.37333 2.63496,0.52545 5.84375,0.34375 5.34377,-0.3026 5.98264,-0.11348 7.53125,2.25 1.76127,2.68804 4.48651,3.35724 6.3125,1.53125 0.75238,-0.75238 1.53115,-0.59384 2.6875,0.5625 2.11117,2.11118 2.05036,2.80508 -0.375,5 -1.1,0.99549 -2,2.64149 -2,3.65625 0,1.31395 -0.73527,1.84375 -2.5625,1.84375 -1.41116,0 -3.40704,0.44852 -4.4375,1 -1.25242,0.67028 -2.08575,0.67028 -2.5,0 -0.93199,-1.508 -6.07395,-1.20548 -7.4375,0.4375 -1.23572,1.48895 -1.22565,1.50058 7.9375,2.90625 1.375,0.21093 2.89509,0.45635 3.34375,0.53125 0.44866,0.0749 1.79866,-0.40894 3,-1.0625 1.20134,-0.65355 3.59765,-1.07963 5.34375,-0.9375 2.77279,0.22569 3.09903,1.9e-4 2.625,-1.8125 -0.29851,-1.14151 0.034,-2.73745 0.71875,-3.5625 0.8034,-0.96805 1.00293,-2.9099 0.59375,-5.46875 -0.58514,-3.65923 -0.3855,-4.08865 2.34375,-5.5 3.84037,-1.98593 4.62898,-1.93352 7.03125,0.46875 3.48149,3.48149 2.1551,11.74381 -1.65625,10.28125 -0.90071,-0.34563 -1.65108,0.25949 -2,1.59375 -0.30633,1.17143 -0.95165,2.125 -1.4375,2.125 -0.48585,0 -0.90625,0.4259 -0.90625,0.9375 0,1.2524 6.20008,-0.55786 7.5,-2.1875 0.55,-0.68951 3.223,-1.34991 5.9375,-1.46875 5.5402,-0.24254 15.33608,-5.49595 17.03125,-9.125 0.52993,-1.1345 2.02243,-2.30121 3.3125,-2.625 3.18051,-0.79826 10.7304,-7.9068 12.21875,-11.5 0.99838,-2.4103 0.93683,-3.2967 -0.34375,-5.125 -1.1202,-1.59931 -1.27638,-2.7286 -0.5625,-4.0625 0.79739,-1.48993 0.61288,-1.84375 -0.90625,-1.84375 -2.12475,0 -7.83559,2.65282 -8.6875,4.03125 -0.30811,0.49853 0.96372,1.55823 2.84375,2.34375 4.1607,1.73843 4.9164,2.81557 4.125,5.96875 -0.47674,1.89948 -1.08582,2.31165 -2.78125,1.875 -1.88457,-0.48537 -2.00614,-0.34881 -0.875,1.03125 1.10673,1.35028 0.98076,1.68084 -0.8125,2.25 -2.8376,0.90062 -11.8077,-1.32184 -15.3125,-3.78125 -2.45897,-1.72553 -3.16359,-1.78959 -5.28125,-0.65625 -2.4357,1.30355 -2.4332,1.30469 1.75,2.71875 2.30288,0.77845 5.40268,2.28647 6.875,3.375 l 2.6875,2 -3.375,3.4375 c -1.83984,1.89453 -3.34375,3.88389 -3.34375,4.4375 0,0.55361 -1.22259,1.49366 -2.71875,2.0625 -2.0812,0.79127 -2.96218,0.70513 -3.75,-0.34375 -0.56634,-0.75404 -1.81875,-1.67009 -2.78125,-2.03125 -0.9625,-0.36115 -1.7912,-1.68273 -1.875,-2.9375 -0.0838,-1.25476 -0.22015,-2.79956 -0.28125,-3.4375 -0.18821,-1.96428 -3.77758,-5.34375 -5.6875,-5.34375 -0.99541,0 -2.32979,0.92698 -2.9375,2.0625 -0.86472,1.61575 -1.38697,1.80405 -2.46875,0.90625 -0.76025,-0.63093 -2.22171,-0.87894 -3.21875,-0.5625 -1.29359,0.41057 -3.31205,-0.95689 -7.09375,-4.8125 -4.31125,-4.39551 -5.11474,-5.75351 -4.34375,-7.25 0.52125,-1.01176 1.49601,-3.04792 2.1875,-4.53125 1.72963,-3.71023 3.65035,-4.20365 7.46875,-1.84375 3.88306,2.39986 5.82245,2.55257 7.5,0.53125 0.68469,-0.825 1.86735,-1.5 2.625,-1.5 0.75766,0 1.375,0.675 1.375,1.5 0,1.88394 3.02207,1.92851 5.53125,0.0937 1.59709,-1.16782 1.6878,-1.61926 0.59375,-2.9375 -1.10366,-1.32983 -0.91243,-1.96697 1.28125,-4 3.18319,-2.95008 3.27573,-5.07507 0.34375,-8.03125 -1.2375,-1.24772 -3.01515,-3.91021 -3.96875,-5.9375 -0.99456,-2.114365 -1.94278,-3.265709 -3.15625,-3.5 z m -10.75,7.3125 1.96875,2.25 c 1.08622,1.2375 2.28257,2.25 2.65625,2.25 0.37368,0 1.59505,-1.0125 2.6875,-2.25 l 1.96875,-2.25 -0.6875,2.5 c -0.38029,1.375 -0.7385,3.74869 -0.8125,5.28125 -0.074,1.53256 -0.83125,3.22848 -1.65625,3.75 -0.825,0.52152 -1.77984,0.9295 -2.125,0.9375 -1.57597,0.0384 -3.15885,-3.37893 -3.5625,-7.71875 l -0.4375,-4.75 z m 44.625,0.5 c -0.81884,0 -1.5,0.7823 -1.5,1.75 0,0.9677 -0.9207,2.34943 -2.0625,3.0625 -1.69921,1.06117 -1.8556,1.56205 -0.84375,2.78125 0.67993,0.81926 1.87439,1.23753 2.65625,0.9375 0.78187,-0.30003 2.09864,-0.53125 2.9375,-0.53125 1.06868,0 1.33262,-0.5238 0.8125,-1.75 -0.40827,-0.9625 -0.6933,-2.7625 -0.625,-4 0.0762,-1.38139 -0.46096,-2.25 -1.375,-2.25 z m -20.9375,10.03125 c -0.82263,-0.0391 -1.5625,0.39736 -1.5625,1.34375 0,0.76085 0.96966,1.63537 2.125,1.9375 3.50831,0.91745 1.12746,2.60305 -2.78125,1.96875 -2.61359,-0.42412 -3.45092,-0.26823 -2.9375,0.5625 0.39297,0.63584 1.35181,1.15625 2.125,1.15625 0.77319,0 1.88005,0.9 2.46875,2 1.05996,1.98056 3.08695,2.60055 4.34375,1.34375 0.35812,-0.35812 -0.1398,-1.27452 -1.09375,-2.03125 -1.62492,-1.28898 -1.6079,-1.4745 0.5,-2.96875 2.46933,-1.75045 3.08453,-3.58588 0.90625,-2.75 -0.75402,0.28935 -1.64004,-0.17464 -1.96875,-1.03125 -0.36992,-0.96399 -1.30237,-1.49212 -2.125,-1.53125 z m -27.25,7.6875 c -0.84881,-0.32118 -0.8814,0.43837 -0.84375,3.28125 0.029,2.1921 0.35491,3.99991 0.71875,4 0.36384,8e-5 0.54808,0.7875 0.40625,1.75 -0.14183,0.9625 0.4345,2.30779 1.3125,3 0.87799,0.6922 2.71875,1.02057 4.09375,0.71875 1.375,-0.30182 3.05545,-0.618 3.71875,-0.6875 0.66329,-0.0696 0.97853,-0.45467 0.71875,-0.875 -0.25978,-0.42033 0.004,-1.06079 0.5625,-1.40625 0.55897,-0.34546 1,-2.2 1,-4.125 0,-2.39097 0.36757,-3.26868 1.15625,-2.78125 0.68722,0.42473 0.89763,0.26838 0.5,-0.375 -0.36914,-0.59728 -2.78886,-0.96441 -5.40625,-0.8125 -2.71536,0.15759 -5.60442,-0.29754 -6.78125,-1.0625 -0.48807,-0.31725 -0.87331,-0.51794 -1.15625,-0.625 z m 22,15.65625 c -0.18125,0.0799 -0.3125,0.27127 -0.3125,0.5625 0,0.58246 0.45,1.0625 1,1.0625 0.55,0 1,-0.19496 1,-0.4375 0,-0.24254 -0.45,-0.72258 -1,-1.0625 -0.275,-0.16996 -0.50625,-0.20493 -0.6875,-0.125 z"
       id="path3041"
       inkscape:connector-curvature="0" />
    <path
       style="fill:#000000"
       d="m 301.28125,92.9375 c -3.92835,0 -4.06856,0.25669 -1.6875,3.53125 2.03081,2.79287 2.32287,2.85977 5.71875,1.3125 4.82873,-2.20011 2.63175,-4.84375 -4.03125,-4.84375 z"
       id="path3039"
       inkscape:connector-curvature="0" />
    <path
       style="fill:#000000"
       d="m 401.84375,67.5625 c -7.11645,-0.84825 -20.69813,2.61988 -30.8125,7.84375 -12.56921,6.49174 -20.42974,14.61717 -27.15625,28.03125 -0.82739,1.65 -1.95741,3 -2.5,3 -0.54258,0 -1.60705,-1.35 -2.375,-3 -5.0689,-10.89098 -18.72879,-16.5 -40.15625,-16.5 -15.81215,0 -28.37888,3.064 -43.6875,10.65625 -12.59418,6.24603 -21.66639,14.14515 -24.78125,21.59375 -0.9741,2.32936 -2.4454,5.63978 -3.28125,7.34375 -0.83585,1.70396 -1.25432,4.17896 -0.9375,5.5 0.31682,1.32103 1.0186,4.20625 1.59375,6.40625 0.57514,2.2 1.08065,5.81874 1.09375,8.03125 0.0328,5.52611 5.78516,15.08422 14.125,23.46875 5.61092,5.64099 6.35514,6.71343 9.55409,8.91466 4.91451,3.38171 8.63833,6.31421 17.24271,7.24572 25.29656,2.7386 42.61464,-7.07934 42.60069,-7.47007 -0.0148,-0.4155 -20.06511,8.49923 -37.27258,6.70658 -1.81124,-0.18869 -5.18684,1.55453 -13.74991,-3.33439 -3.77799,-2.41174 -5.90318,-4.1586 -15.9375,-13.21875 -4.29388,-3.87701 -11.2707,-14.4793 -10.21875,-15.53125 0.34305,-0.34305 3.32672,1.05793 6.625,3.09375 16.062,9.91403 44.76619,8.47864 68.0625,-3.40625 6.2617,-3.19448 17.10826,-11.14315 22.46875,-16.4375 2.75,-2.71607 5.32083,-4.9638 5.6875,-5 0.36666,-0.0362 1.04166,-0.46807 1.5,-0.96875 0.49416,-0.53976 0.24826,-0.5826 -0.59375,-0.0937 -1.10192,0.63974 -1.24952,0.39162 -0.65625,-1.09375 2.07183,-5.1872 3.5525,-11.28021 3.5625,-14.65625 0.007,-2.35091 0.73592,-4.45467 1.9375,-5.65625 1.05416,-1.05416 0.74945,-1.42155 1.3125,-2.5 1.88879,-3.09568 2.38935,-5.83737 6.46875,-11.09375 3.07933,-4.59994 13.6459,-14.36914 18.25,-16.875 4.29962,-2.34015 17.61642,-6.5972 20.53125,-6.5625 0.55,0.0066 -0.125,0.65148 -1.5,1.4375 l -2.5,1.4375 2.75,0.03125 c 2.044,0.02634 2.75,-0.46797 2.75,-1.875 0,-3.9569 6.82227,-4.13938 18.875,-0.5 4.75453,1.43566 10.17193,3.79816 12.0625,5.25 1.89057,1.45183 4.25331,3.11828 5.25,3.6875 0.99668,0.56922 5.33832,4.24152 9.625,8.15625 10.20531,9.31982 13.91257,16.57208 15.8125,30.8125 1.27359,9.54579 0.95313,21.84275 -0.625,24 -1.20253,1.64381 -1.77498,6.51822 -0.84375,7.09375 0.47624,0.29434 0.84375,1.83931 0.84375,3.4375 0,1.88235 0.70442,3.27538 2,3.96875 1.35599,0.72572 2,0.7331 2,0.0312 0,-1.46132 7.31807,-1.28698 9.21875,0.21875 2.25468,1.78618 12.93378,14.52207 16.0625,19.15625 2.46889,3.65688 2.79972,6.37531 0.625,5.03125 -0.52563,-0.32485 -0.80737,-0.0757 -0.65625,0.5625 0.39256,1.65789 -9.53535,7.12045 -13.53125,7.4375 -1.84918,0.14673 -4.691,1.23867 -6.3125,2.4375 -2.54863,1.88429 -4.64138,2.23729 -15.375,2.65625 -12.01922,0.46914 -19.03125,-0.50216 -19.03125,-2.625 0,-0.50735 -0.675,-0.90625 -1.5,-0.90625 -0.825,0 -2.45556,-1.0125 -3.65625,-2.25 -1.20068,-1.2375 -4.01318,-3.14756 -6.25,-4.25 -2.23681,-1.10243 -4.51958,-3.01493 -5.0625,-4.25 -0.54292,-1.23506 -1.31329,-2.25 -1.71875,-2.25 -2.96552,0 -5.35217,-15.2118 -2.5625,-16.34375 0.91551,-0.37147 0.95557,-0.73869 0.125,-1.34375 -1.09085,-0.79467 -1.43296,-9.3065 -0.375,-9.3125 0.28431,-0.002 0.5334,-1.86113 0.5625,-4.125 0.0367,-2.85569 0.64218,-4.52999 1.96875,-5.5 1.05163,-0.76897 2.0417,-2.87834 2.21875,-4.65625 0.40345,-4.0515 2.21517,-8.71875 3.375,-8.71875 0.48327,0 0.77856,-0.3375 0.65625,-0.75 -0.55743,-1.87993 7.00604,-11.50232 8.375,-10.65625 0.47005,0.2905 0.84375,0.071 0.84375,-0.46875 0,-0.53981 1.575,-1.48969 3.5,-2.125 3.59988,-1.18807 3.94896,-1.72025 2.90625,-4.4375 -1.08711,-2.83298 -4.42564,-1.66686 -10.4375,3.625 -5.28105,4.64857 -12.96875,14.23812 -12.96875,16.1875 0,0.41048 -1.39242,4.10073 -3.09375,8.1875 -3.10776,7.46517 -4.90525,9.37048 -4.90625,5.1875 -6e-4,-1.7068 -1.13345,-2.77656 -4.71875,-4.4375 -2.59949,-1.20425 -4.88629,-2.01996 -5.09375,-1.8125 -0.20747,0.20747 0.3452,1.81142 1.21875,3.5625 0.87358,1.75109 1.278,3.69181 0.90625,4.3125 -0.37175,0.6207 0.0764,0.49904 1,-0.25 1.9859,-1.6106 4.6875,-0.82847 4.6875,1.34375 0,0.84226 0.74115,1.53122 1.625,1.53125 1.0545,0 1.39831,0.52451 1,1.5625 -0.33385,0.86998 -0.617,1.88248 -0.625,2.25 -0.008,0.36751 -0.46684,0.0125 -1,-0.8125 -0.86167,-1.33333 -0.9728,-1.33333 -1,0 -0.0272,1.33333 -0.11955,1.33333 -1.0625,0 -0.94295,-1.33333 -1.02022,-1.33333 -0.65625,0 0.22521,0.825 1.03334,1.5 1.8125,1.5 0.77917,0 1.55734,1.125 1.71875,2.5 0.20988,1.78792 0.0342,2.09916 -0.625,1.125 -0.60478,-0.89368 -0.9547,1.18131 -1,6 -0.0394,4.1907 -0.26935,8.11438 -1.375,11.21875 -0.4412,1.23878 -0.69871,3.81223 0.0312,4.84375 -0.1749,0.34402 -0.52062,0.51502 -1,0.21875 -0.68036,-0.42049 -0.85637,-0.28343 -0.46875,0.34375 0.86452,1.39882 -0.33193,4.3901 -1.46875,3.6875 -0.48607,-0.30041 -0.60879,0.14644 -0.28125,1 0.53584,1.39637 -0.56703,2.05192 -2.875,1.6875 -0.4125,-0.0651 -0.75,0.29422 -0.75,0.8125 0,0.51829 -2.3625,0.98535 -5.25,1.03125 -2.8875,0.0459 -6.825,0.14605 -8.75,0.21875 -4.27808,0.16155 -21.67771,-7.77146 -25.5625,-11.65625 -2.99975,-2.99975 -6.10737,-4.3598 -8.6875,-3.78125 -2.90516,0.65142 -2.02016,2.00511 3.6875,5.65625 7.08237,4.53054 12.37127,7.28857 21.5625,11.25 4.125,1.77789 7.8148,3.25415 8.1875,3.28125 1.14377,0.0832 16.23819,-2.00115 17.84375,-2.46875 2.35711,-0.68649 6.55209,-10.29166 5.125,-11.71875 -0.0449,-0.0449 -0.0519,-0.0223 -0.0937,-0.0625 0.6408,-2.09845 1.01016,-7.62157 1.21875,-9.9375 l 0.375,-4.25 0.1875,4.78125 c 0.25265,6.89961 5.29533,16.6175 11.75,22.625 2.89774,2.69699 5.51103,4.64523 5.8125,4.34375 0.30148,-0.30147 0.84192,0.19319 1.1875,1.09375 0.34557,0.90056 0.96593,1.44032 1.375,1.1875 0.40908,-0.25282 1.59859,0.32714 2.65625,1.3125 1.05766,0.98536 2.56031,1.59448 3.3125,1.34375 0.90668,-0.30223 1.08869,-0.008 0.5625,0.84375 -0.45758,0.74038 -0.38857,1.02422 0.15625,0.6875 0.51977,-0.32124 6.28718,-0.19998 12.84375,0.25 9.19991,0.63139 13.08039,0.48751 16.96875,-0.59375 2.77114,-0.7706 7.86445,-2.04045 11.3125,-2.8125 3.44805,-0.77206 8.17305,-2.49882 10.5,-3.84375 2.32695,-1.34493 4.72236,-2.27473 5.3125,-2.0625 0.59015,0.21223 1.89865,-0.51162 2.90625,-1.625 2.34074,-2.58652 4.20542,-2.60197 5.03125,0 1.28836,4.05928 -5.53093,10.50028 -17.90625,16.90625 -5.63896,2.91895 -6.4242,3.0625 -18.3125,3.0625 -8.82553,0 -12.20502,-0.33819 -11.71875,-1.125 0.44604,-0.72171 0.004,-0.8815 -1.21875,-0.5 -2.04477,0.63817 -9.19871,-3.32712 -11.07773,-4.23652 3.12091,3.6487 8.48085,8.50694 20.20273,9.73652 14.16922,0.91748 17.13047,-1.19027 24.68304,-4.86161 6.42424,-3.12285 7.31723,-3.42929 13.62946,-8.88839 3.7351,-3.21269 4.23245,-4.11945 4.21875,-7.84375 -0.0122,-3.32318 -0.66629,-4.86193 -3.03125,-7.28125 -1.65,-1.68793 -3,-3.69874 -3,-4.46875 0,-3.92058 -23.33063,-29.53125 -26.90625,-29.53125 -3.45952,0 -5.46459,-5.90994 -4.125,-12.15625 2.34925,-10.95416 0.26344,-26.40598 -5.03125,-37.5 -3.77794,-7.91596 -15.61579,-20.84091 -24.21875,-26.4375 -6.18747,-4.02521 -18.26724,-8.39307 -25.71875,-9.28125 z M 417.125,77.96875 c -1.09218,-0.152974 -2.22473,0.227105 -2.6875,1.21875 -0.46666,1 -0.68959,1 -1.15625,0 -0.85722,-1.8369 -4.84899,-1.51465 -8.625,0.6875 -2.65585,1.54889 -4.15734,1.74174 -7.625,1.09375 -3.75817,-0.70227 -4.66516,-0.47606 -7.125,1.59375 -1.55446,1.30799 -4.03958,2.375 -5.5,2.375 -1.46041,0 -4.00103,0.70655 -5.65625,1.5625 -2.53161,1.30915 -2.94757,2.06343 -2.6875,4.75 0.25725,2.65753 0.70097,3.1875 2.78125,3.1875 1.96307,0 2.44405,-0.4472 2.21875,-2.09375 -0.38286,-2.79804 2.17068,-4.78842 5.1875,-4.03125 1.88092,0.47208 2.57934,1.48646 3.09375,4.53125 0.3647,2.15864 1.30982,4.16792 2.09375,4.46875 1.88193,0.72216 1.73647,2.30087 -0.59375,7.125 -1.06268,2.2 -1.9189,4.50484 -1.9375,5.125 -0.0187,0.62015 -0.72362,1.71004 -1.5625,2.40625 -1.36274,1.13098 -1.37489,1.43967 0.0937,3.0625 1.92093,2.1226 1.37785,5.4846 -1.46875,9 l -1.90625,2.375 -3.78125,-2.6875 c -4.28057,-3.04567 -5.76933,-2.81549 -4.4375,0.6875 0.5844,1.53716 0.55329,2.50307 -0.0937,2.71875 -0.55516,0.18506 0.25269,1.47965 1.78125,2.84375 1.52862,1.3641 2.17571,1.68125 1.4375,0.71875 -1.13819,-1.48404 -1.13742,-1.75 0.125,-1.75 0.81877,0 3.12642,2.09099 5.125,4.65625 3.54564,4.551 5.16805,4.99629 2.0625,0.5625 -1.53149,-2.18651 -1.50954,-2.22016 1.03125,-1.0625 3.34042,1.522 6.53344,-0.705 11.75,-8.21875 4.04554,-5.82708 6.30656,-7.38501 12.25,-8.5 l 3.875,-0.71875 -2.34375,3.875 c -1.29605,2.14125 -3.41501,5.45983 -4.6875,7.375 -1.27249,1.91518 -2.3125,3.88211 -2.3125,4.375 0,0.49289 2.19291,-2.41068 4.875,-6.46875 2.68209,-4.05806 7.18209,-9.61442 10,-12.34375 2.81791,-2.72932 5.125,-5.73679 5.125,-6.6875 0,-0.95072 0.45,-2.00383 1,-2.34375 0.55,-0.33992 1,0.0729 1,0.9375 0,0.87275 2.03093,2.5665 4.53125,3.78125 3.40618,1.65485 4.3584,2.61135 3.9375,3.9375 -0.30608,0.96437 0.23924,2.97384 1.21875,4.46875 l 1.78125,2.71875 -2.75,-1.8125 c -4.55299,-2.98324 -3.93043,-1.31155 1.90625,5 3.03569,3.28267 7.13924,8.33955 9.09375,11.25 3.8746,5.76964 5.85493,6.47439 2.375,0.84375 -1.22515,-1.98233 -1.73364,-3.72497 -1.1875,-4.0625 0.52632,-0.32529 1.16761,0.18701 1.4375,1.15625 0.6355,2.28222 -0.13257,-11.85004 -0.96875,-17.71875 -1.33838,-9.39342 -8.8981,-21.25624 -14.25,-22.375 -1.43923,-0.30085 -4.425,-0.89911 -6.625,-1.34375 -3.56231,-0.71997 -4.00539,-1.15899 -4.28125,-4 -0.19743,-2.03337 -0.98834,-3.41058 -2.15625,-3.78125 -1.00775,-0.31985 -2.06086,-1.44947 -2.34375,-2.53125 -0.28677,-1.09663 -1.34532,-1.784526 -2.4375,-1.9375 z m -113.09375,12.125 c 1.49153,0.119971 2.3029,0.434695 2.875,1 0.81571,0.80601 3.85054,1.56026 6.9375,1.71875 3.025,0.1553 6.0625,0.77399 6.75,1.34375 0.6875,0.56975 1.26295,0.6361 1.28125,0.15625 0.0183,-0.47984 0.84143,0.025 1.8125,1.125 0.97106,1.1 2.64561,2.48758 3.71875,3.09375 1.07314,0.60617 2.09554,2.18117 2.28125,3.5 0.18572,1.31883 1.26559,3.39697 2.375,4.59375 1.10941,1.19679 1.7423,2.61251 1.40625,3.15625 -0.33605,0.54374 -0.14036,1.15113 0.4375,1.34375 1.14659,0.3822 1.21146,1.3606 0.71875,10.3125 -0.20181,3.66683 -1.03814,7.07024 -2.15625,8.75 -1.97508,2.96719 -10.67599,9.75 -12.5,9.75 -0.61381,0 -1.125,0.604 -1.125,1.34375 0,2.96226 -11.79154,9.93881 -18.8125,11.125 -2.33067,0.39376 -5.59242,1.39184 -7.25,2.21875 -1.65758,0.82691 -7.38259,1.89804 -12.71875,2.375 -10.97914,0.98135 -14.3746,0.98127 -22.21875,-0.0312 -7.20496,-0.93001 -9.67456,-2.34318 -11.4375,-6.5625 -1.11802,-2.67578 -2.01806,-3.46875 -4,-3.46875 -1.50603,0 -4.0526,-1.35339 -6.15625,-3.28125 -2.83367,-2.59686 -3.68653,-4.26222 -4.09375,-7.875 -0.3161,-2.80444 -0.0178,-5.46665 0.78125,-6.9375 0.716,-1.31803 1.18296,-3.92395 1.03125,-5.78125 -0.24574,-3.00856 0.44197,-4.07206 6.40625,-9.75 3.68198,-3.5052 6.99007,-6.42665 7.34375,-6.46875 3.25119,-0.38683 4.77089,-1.13238 6.5625,-3.3125 3.05243,-3.71435 12.43691,-7.59368 21.84375,-9 4.5245,-0.67641 9.21798,-1.76092 10.40625,-2.40625 1.18828,-0.64533 5.91885,-1.45796 10.53125,-1.8125 3.30125,-0.25375 5.47722,-0.338721 6.96875,-0.21875 z m 40,21.4375 c -0.37866,-0.23587 -0.52997,2.76541 -0.34375,6.65625 0.5508,11.50813 -0.45023,15.60236 -4.8125,19.6875 -8.74501,8.18945 -13.01225,14.04957 -14.71875,20.1875 -1.41233,5.07989 -2.50613,6.80179 -6.90625,10.71875 -6.78463,6.03963 -15.06086,10.99761 -21.09375,12.65625 -2.64142,0.72621 -3.85992,1.35705 -2.71875,1.40625 2.41413,0.10404 14.53611,-3.87379 19.3125,-6.34375 1.80496,-0.93338 3.86756,-1.49741 4.59375,-1.21875 0.76699,0.29433 2.42503,-1.12075 3.9375,-3.40625 1.43198,-2.16386 2.85659,-3.9375 3.15625,-3.9375 0.61709,0 -0.0909,1.31217 -2.75,5.15625 -1.01171,1.46257 -1.55718,3.36807 -1.21875,4.25 0.33843,0.88194 0.0642,2.26967 -0.59375,3.0625 -1.57269,1.89498 -5.03125,8.70473 -5.03125,9.90625 3.12613,7.97022 22.35336,15.25545 18,12.125 -1.54499,-0.95485 -1.18139,-3.5 0.5,-3.5 1.68139,0 2.04499,-2.54515 0.5,-3.5 -0.55,-0.33992 -1,-1.52093 -1,-2.625 0,-1.59998 0.5582,-1.9397 2.75,-1.6875 2.40781,0.27705 2.7541,0.71691 2.625,3.5625 -0.13998,3.08536 0.54208,4.02042 1.9375,2.625 0.34722,-0.34721 2.20897,-0.72552 4.15625,-0.84375 3.76159,-0.22837 6.11961,1.49615 5.21875,3.84375 -0.80083,2.08695 3.37858,2.55852 13.90625,1.5625 8.60952,-0.81454 16.73479,-3.1457 22.40625,-6.4375 l 2.5,-1.46875 -3.25,0.5 c -1.7875,0.26268 -4.4875,0.65665 -6,0.875 -3.37237,0.48687 -13.42517,-1.50579 -15.34375,-3.03125 -0.77166,-0.61354 -4.40266,-2.53942 -8.09375,-4.28125 -3.69109,-1.74183 -7.00111,-3.60184 -7.34375,-4.15625 -0.34264,-0.55441 -2.48998,-2.1982 -4.78125,-3.625 -2.29127,-1.42679 -4.93097,-3.39191 -5.875,-4.375 -0.94402,-0.9831 -4.1817,-2.28224 -7.1875,-2.90625 -5.18351,-1.07609 -5.4558,-1.31356 -5.375,-4.15625 0.0614,-2.15932 0.78572,-3.35835 2.65625,-4.34375 3.16127,-1.66537 11.59963,-10.35486 12.46875,-12.84375 0.37342,-1.06934 0.21164,-1.55007 -0.375,-1.1875 -1.8922,1.16944 -0.96733,-0.61961 1.5,-2.90625 1.36605,-1.26601 2.25669,-2.52456 1.96875,-2.8125 -0.28794,-0.28795 0.15356,-3.84897 1,-7.90625 0.84643,-4.05728 1.5308,-9.0625 1.53125,-11.125 0.74253,-8.77988 -2.48384,-15.13329 -1.8125,-14.15625 z m -1.90625,8.78125 c -0.10514,0.10514 -0.1635,0.44877 -0.1875,1.03125 -0.0434,1.05416 0.19895,1.64479 0.53125,1.3125 0.33225,-0.3323 0.35137,-1.18438 0.0625,-1.90625 -0.15961,-0.39887 -0.30111,-0.54264 -0.40625,-0.4375 z m -0.65625,4.21875 c -0.49811,0.31769 -1.45315,2.48559 -1.53125,3.90625 -0.0302,0.55 0.37309,0.325 0.90625,-0.5 0.53316,-0.825 0.9677,-2.175 0.9375,-3 -0.0145,-0.39596 -0.14646,-0.51215 -0.3125,-0.40625 z m 79.28125,2.4375 c -2.41776,-0.0476 -6.90625,7.32727 -6.90625,11.375 0,1.90434 -0.47858,3.76412 -1.0625,4.125 -2.62172,1.62031 -3.72864,7.2155 -4.375,21.8125 l -0.4375,9.875 3.875,5.28125 c 2.42285,3.27969 4.93727,5.50607 6.65625,5.9375 1.51742,0.38085 3.76091,1.788 5,3.125 1.23909,1.337 2.90358,2.4375 3.6875,2.4375 0.78391,0 1.97156,0.675 2.65625,1.5 1.85023,2.22938 23,2.20067 23,-0.0312 0,-0.84227 -0.675,-1.80842 -1.5,-2.125 -1.96394,-0.75363 -1.90593,-3.74666 0.0937,-5.40625 1.00509,-0.83418 1.38948,-2.24634 1.0625,-3.875 -0.28276,-1.40845 0.23061,-4.25 1.125,-6.3125 1.29571,-2.98797 2.15857,-3.75 4.28125,-3.75 2.32124,0 2.6749,0.41819 2.75,3.25 0.15764,5.94746 0.33921,6.56092 2.34375,8.375 1.70997,1.5475 2.11336,1.59728 2.90625,0.34375 1.39071,-2.19867 1.14681,-4.85146 -0.75,-8.0625 -1.44175,-2.4407 -1.51932,-3.39987 -0.5,-6.21875 0.66357,-1.83505 1.1875,-4.25995 1.1875,-5.40625 0,-1.78722 -0.53425,-2.06341 -3.75,-1.84375 -2.0625,0.14088 -4.9875,0.61466 -6.5,1.03125 -1.5125,0.41658 -3.7625,0.49709 -5,0.1875 -2.0735,-0.51874 -2.21849,-1.05373 -1.90625,-6.625 0.20482,-3.65459 -0.0412,-6.03125 -0.65625,-6.03125 -0.55957,0 -1.75774,-0.72649 -2.65625,-1.625 -1.51155,-1.51155 -1.74224,-1.47417 -3.125,0.5 -0.83229,1.18826 -2.57681,2.125 -3.9375,2.125 -2.21859,0 -2.55244,-0.37259 -2.40625,-2.75 0.0254,-0.41275 1.18247,-0.59119 2.59375,-0.40625 1.79626,0.23539 2.44262,-0.0646 2.125,-1 -0.24954,-0.73494 -1.68916,-1.34375 -3.1875,-1.34375 -1.5531,0 -3.12665,-0.75233 -3.6875,-1.75 -0.74734,-1.32939 -0.61925,-1.75 0.53125,-1.75 0.83297,0 1.98055,-0.88136 2.5625,-1.96875 1.30397,-2.43647 -1.04398,-5.16911 -5.9375,-6.875 -3.14158,-1.09516 -3.23287,-1.04744 -2.65625,1.25 0.41048,1.63547 0.10058,2.55842 -0.96875,2.96875 -1.63323,0.62673 -7.4375,-1.88542 -7.4375,-3.21875 0,-1.39071 2.37868,-3.15625 4.21875,-3.15625 0.99,0 1.78125,-0.30438 1.78125,-0.65625 0,-1.07964 -3.38216,-3.2788 -5.09375,-3.3125 z m -82.40625,5.46875 -6,5.59375 c -16.86509,15.73571 -32.58342,23.59595 -53,26.46875 -2.75,0.38695 -6.0211,1.2306 -7.28125,1.875 -1.79182,0.91627 -3.89187,0.83671 -9.6875,-0.34375 -7.38373,-1.50392 -12.41088,-0.97158 -13.1875,1.40625 -0.37588,1.15088 5.19661,7.28118 8.625,9.5 1.27473,0.825 4.10079,2.9625 6.28125,4.75 4.37253,3.5845 5.75,4.00955 5.75,1.75 0,-0.98374 0.99905,-1.5 2.875,-1.5 1.57325,0 4.4329,-1.07827 6.34375,-2.375 1.91084,-1.29674 5.12451,-2.65009 7.15625,-3.03125 5.31471,-0.99704 9.77614,-3.92587 14.21875,-9.34375 5.48502,-6.68912 9.01514,-9.92212 18.15625,-16.59375 4.40167,-3.21255 10.64175,-8.61255 13.875,-12 z m 64.1875,7.71875 c -0.1757,0.0906 -0.42092,0.36875 -0.6875,0.78125 -0.53316,0.825 -0.96875,1.95 -0.96875,2.5 0,0.55 0.43559,0.325 0.96875,-0.5 0.53316,-0.825 0.96875,-1.95 0.96875,-2.5 0,-0.275 -0.10555,-0.37187 -0.28125,-0.28125 z M 488.6875,193.25 c -0.44099,0.0594 -0.96072,0.21762 -1.46875,0.46875 -1.01606,0.50226 -4.60363,2.30265 -7.96875,4 -3.36511,1.69734 -7.86511,3.37997 -10,3.75 -2.13488,0.37004 -6.28132,1.34332 -9.1875,2.15625 -3.74871,1.04861 -8.90332,1.35971 -17.78125,1.125 -12.42765,-0.32855 -12.4904,-0.2893 -8.71875,1.375 2.0888,0.92171 3.33125,1.7331 2.78125,1.8125 -0.55,0.0795 -0.1,0.52731 1,1 1.1,0.47269 2.45,0.84875 3,0.84375 0.55,-0.005 0.325,-0.30445 -0.5,-0.65625 -0.825,-0.35181 4.125,-1.25053 11,-2 16.82142,-1.83379 19.07239,-1.83565 20.4375,0.0312 1.00956,1.38064 2.01947,1.01766 8.0625,-3.0625 6.68903,-4.51633 11.47681,-9.5232 10.28125,-10.71875 -0.16105,-0.16106 -0.49651,-0.18437 -0.9375,-0.125 z"
       id="path3032"
       inkscape:connector-curvature="0"
       sodipodi:nodetypes="ssssssssssscssssscsssssccsscsccsscccssssssscssssscsssssssssscscssssscsssssscsscssscccscssssssscsssssscssssscssccccscsssssssssssssssssccscssssssssssssssssssssssscssccccccsssssscccssssssssscccssscsssssssscssssssssssssssssssssssssscssssscssssscscssssssccsssscssscccssssssscsssscsccssccsscscsccscccsssssscssscssssssssssssscsssssssssssscccssssssssssssccsssssssscsssscscsssscsccc" />
  </g>
</svg>
